<svg xmlns="http://www.w3.org/2000/svg" viewBox="0 0 740 620">
  <style>
    .letter { fill: #2151DF }
    @media (prefers-color-scheme: dark) { .letter { fill: #FFFFFF } }
  </style>
  <rect x="10" y="10" width="188" height="188" fill="#2151DF"/>
  <rect x="10" y="216" width="188" height="188" fill="#797979"/>
  <rect x="10" y="422" width="188" height="188" fill="#D9D9D9"/>
  <g transform="translate(238,4) scale(1.407)">
    <path class="letter" d="M251.517 127.281C251.517 109.417 245.833 96.019 234.465 87.087C223.097 77.749 207.06 73.08 186.354 73.08H82.2149V180.873H185.745C206.451 180.873 222.488 176.407 233.856 167.475C245.63 158.137 251.517 144.739 251.517 127.281ZM0 430.563V4.263H197.925C227.563 4.263 252.532 9.338 272.832 19.488C293.132 29.232 308.357 42.63 318.507 59.682C329.063 76.328 334.341 95.207 334.341 116.319C334.341 134.995 330.89 150.829 323.988 163.821C317.086 176.813 307.545 187.166 295.365 194.88C283.591 202.188 269.99 207.263 254.562 210.105V214.977C273.238 217.413 289.275 222.691 302.673 230.811C316.071 238.525 326.424 249.487 333.732 263.697C341.04 277.907 344.694 295.162 344.694 315.462C344.694 337.792 339.213 357.686 328.251 375.144C317.289 392.196 301.252 405.797 280.14 415.947C259.434 425.691 234.465 430.563 205.233 430.563H0ZM82.2149 361.746H194.271C215.789 361.746 232.435 357.077 244.209 347.739C256.389 337.995 262.479 323.988 262.479 305.718C262.479 286.636 255.983 272.223 242.991 262.479C230.405 252.735 213.556 247.863 192.444 247.863H82.2149V361.746Z"/>
  </g>
</svg>
