<svg xmlns="http://www.w3.org/2000/svg" viewBox="0 0 56 56" fill="none">
  <rect width="56" height="56" fill="#1B4AE8"/>
  <g aria-label="BTC">
    <path d="M60 700H460Q558 700 604.0 655.5Q650 611 650 520Q650 460 624.0 422.5Q598 385 560 370Q641 348 670 262Q680 231 680 190Q680 92 634.0 46.0Q588 0 490 0H60ZM500 220Q500 280 440 280H240V140H440Q500 140 500 200ZM470 500Q470 560 410 560H240V420H410Q470 420 470 480Z" transform="translate(5.89,34.00) scale(0.022000,-0.022000)" fill="#FFFFFF"/>
    <path d="M400 0H220V560H10V700H610V560H400Z" transform="translate(22.17,34.00) scale(0.022000,-0.022000)" fill="#FFFFFF"/>
    <path d="M600 10Q377 -10 230 -10Q132 -10 86.0 36.0Q40 82 40 180V500Q40 605 87.5 652.5Q135 700 240 700H600V560H280Q220 560 220 500V180Q220 157 233.5 143.5Q247 130 268.0 130.0H600Z" transform="translate(36.47,34.00) scale(0.022000,-0.022000)" fill="#FFFFFF"/>
  </g>
  <g aria-label="CONSULTING">
    <path d="M34 189V513Q34 602 88.5 655.0Q143 708 233 708Q324 708 378.5 655.0Q433 602 433 513V502Q433 497 429.5 493.5Q426 490 421 490L304 485Q292 485 292 496V522Q292 551 276.0 569.0Q260 587 233 587Q207 587 191.0 569.0Q175 551 175 522V177Q175 148 191.0 130.5Q207 113 233 113Q260 113 276.0 130.5Q292 148 292 177V204Q292 209 295.5 212.5Q299 216 304 216L421 211Q426 211 429.5 207.5Q433 204 433 199V189Q433 99 378.0 45.5Q323 -8 233 -8Q143 -8 88.5 45.5Q34 99 34 189Z" transform="translate(7.81,46.00) scale(0.006000,-0.006000)" fill="#FFFFFF"/>
    <path d="M34 190V510Q34 600 89.0 654.0Q144 708 236 708Q328 708 383.5 654.0Q439 600 439 510V190Q439 100 383.5 46.0Q328 -8 236 -8Q144 -8 89.0 46.0Q34 100 34 190ZM298 184V516Q298 548 281.0 567.5Q264 587 236 587Q208 587 191.5 567.5Q175 548 175 516V184Q175 152 191.5 132.5Q208 113 236 113Q264 113 281.0 132.5Q298 152 298 184Z" transform="translate(12.10,46.00) scale(0.006000,-0.006000)" fill="#FFFFFF"/>
    <path d="M342 700H458Q463 700 466.5 696.5Q470 693 470 688V12Q470 7 466.5 3.5Q463 0 458 0H326Q316 0 313 10L189 397Q188 400 185.5 399.5Q183 399 183 396L184 12Q184 7 180.5 3.5Q177 0 172 0H56Q51 0 47.5 3.5Q44 7 44 12V688Q44 693 47.5 696.5Q51 700 56 700H187Q197 700 200 690L325 303Q326 300 328.5 300.5Q331 301 331 304L330 688Q330 693 333.5 696.5Q337 700 342 700Z" transform="translate(16.43,46.00) scale(0.006000,-0.006000)" fill="#FFFFFF"/>
    <path d="M30 175V204Q30 209 33.5 212.5Q37 216 42 216H157Q162 216 165.5 212.5Q169 209 169 204V182Q169 151 185.0 132.0Q201 113 225 113Q249 113 265.0 131.0Q281 149 281 178Q281 208 261.0 229.5Q241 251 183 293Q133 329 102.0 357.0Q71 385 49.0 426.0Q27 467 27 521Q27 606 80.0 657.0Q133 708 220 708Q308 708 361.5 655.0Q415 602 415 516V492Q415 487 411.5 483.5Q408 480 403 480H288Q283 480 279.5 483.5Q276 487 276 492V519Q276 550 260.5 568.5Q245 587 220 587Q196 587 181.0 569.5Q166 552 166 521Q166 491 185.0 468.0Q204 445 260 404Q322 358 353.5 329.5Q385 301 402.5 266.5Q420 232 420 184Q420 96 366.0 44.0Q312 -8 224 -8Q166 -8 122.0 15.0Q78 38 54.0 79.5Q30 121 30 175Z" transform="translate(21.02,46.00) scale(0.006000,-0.006000)" fill="#FFFFFF"/>
    <path d="M41 199V688Q41 693 44.5 696.5Q48 700 53 700H170Q175 700 178.5 696.5Q182 693 182 688V185Q182 153 198.0 133.0Q214 113 240 113Q266 113 281.5 133.0Q297 153 297 185V688Q297 693 300.5 696.5Q304 700 309 700H426Q431 700 434.5 696.5Q438 693 438 688V199Q438 105 383.5 48.5Q329 -8 240 -8Q150 -8 95.5 48.5Q41 105 41 199Z" transform="translate(25.18,46.00) scale(0.006000,-0.006000)" fill="#FFFFFF"/>
    <path d="M44 12V688Q44 693 47.5 696.5Q51 700 56 700H173Q178 700 181.5 696.5Q185 693 185 688V126Q185 121 190 121H400Q405 121 408.5 117.5Q412 114 412 109V12Q412 7 408.5 3.5Q405 0 400 0H56Q51 0 47.5 3.5Q44 7 44 12Z" transform="translate(29.56,46.00) scale(0.006000,-0.006000)" fill="#FFFFFF"/>
    <path d="M444 688V591Q444 586 440.5 582.5Q437 579 432 579H307Q302 579 302 574V12Q302 7 298.5 3.5Q295 0 290 0H173Q168 0 164.5 3.5Q161 7 161 12V574Q161 579 156 579H36Q31 579 27.5 582.5Q24 586 24 591V688Q24 693 27.5 696.5Q31 700 36 700H432Q437 700 440.5 696.5Q444 693 444 688Z" transform="translate(33.61,46.00) scale(0.006000,-0.006000)" fill="#FFFFFF"/>
    <path d="M44 12V688Q44 693 47.5 696.5Q51 700 56 700H173Q178 700 181.5 696.5Q185 693 185 688V12Q185 7 181.5 3.5Q178 0 173 0H56Q51 0 47.5 3.5Q44 7 44 12Z" transform="translate(37.92,46.00) scale(0.006000,-0.006000)" fill="#FFFFFF"/>
    <path d="M342 700H458Q463 700 466.5 696.5Q470 693 470 688V12Q470 7 466.5 3.5Q463 0 458 0H326Q316 0 313 10L189 397Q188 400 185.5 399.5Q183 399 183 396L184 12Q184 7 180.5 3.5Q177 0 172 0H56Q51 0 47.5 3.5Q44 7 44 12V688Q44 693 47.5 696.5Q51 700 56 700H187Q197 700 200 690L325 303Q326 300 328.5 300.5Q331 301 331 304L330 688Q330 693 333.5 696.5Q337 700 342 700Z" transform="translate(40.80,46.00) scale(0.006000,-0.006000)" fill="#FFFFFF"/>
    <path d="M34 181V519Q34 605 88.5 656.5Q143 708 233 708Q323 708 378.0 656.0Q433 604 433 518V480Q433 475 429.5 471.5Q426 468 421 468H304Q299 468 295.5 471.5Q292 475 292 480V520Q292 550 276.0 568.5Q260 587 233 587Q207 587 191.0 568.5Q175 550 175 520V180Q175 150 191.0 131.5Q207 113 233 113Q260 113 276.0 131.5Q292 150 292 180V260Q292 265 287 265H243Q238 265 234.5 268.5Q231 272 231 277V366Q231 371 234.5 374.5Q238 378 243 378H421Q426 378 429.5 374.5Q433 371 433 366V181Q433 95 378.0 43.5Q323 -8 233 -8Q143 -8 88.5 43.5Q34 95 34 181Z" transform="translate(45.39,46.00) scale(0.006000,-0.006000)" fill="#FFFFFF"/>
  </g>
</svg>
