<svg xmlns="http://www.w3.org/2000/svg" viewBox="0 0 2095 645" fill="none">
  <rect width="200" height="200" fill="#2151DF"/>
  <rect y="220" width="200" height="200" fill="#797979"/>
  <rect y="440" width="200" height="200" fill="#D9D9D9"/>
  <path d="M251.517 127.281C251.517 109.417 245.833 96.019 234.465 87.087C223.097 77.749 207.06 73.08 186.354 73.08H82.2149V180.873H185.745C206.451 180.873 222.488 176.407 233.856 167.475C245.63 158.137 251.517 144.739 251.517 127.281ZM-0.000107124 430.563V4.263H197.925C227.563 4.263 252.532 9.338 272.832 19.488C293.132 29.232 308.357 42.63 318.507 59.682C329.063 76.328 334.341 95.207 334.341 116.319C334.341 134.995 330.89 150.829 323.988 163.821C317.086 176.813 307.545 187.166 295.365 194.88C283.591 202.188 269.99 207.263 254.562 210.105V214.977C273.238 217.413 289.275 222.691 302.673 230.811C316.071 238.525 326.424 249.487 333.732 263.697C341.04 277.907 344.694 295.162 344.694 315.462C344.694 337.792 339.213 357.686 328.251 375.144C317.289 392.196 301.252 405.797 280.14 415.947C259.434 425.691 234.465 430.563 205.233 430.563H-0.000107124ZM82.2149 361.746H194.271C215.789 361.746 232.435 357.077 244.209 347.739C256.389 337.995 262.479 323.988 262.479 305.718C262.479 286.636 255.983 272.223 242.991 262.479C230.405 252.735 213.556 247.863 192.444 247.863H82.2149V361.746ZM413.335 4.263H495.55V430.563H413.335V4.263ZM775.376 434.826C745.332 434.826 717.115 429.548 690.725 418.992C664.335 408.436 641.193 393.617 621.299 374.535C601.811 355.047 586.383 332.108 575.015 305.718C563.647 278.922 557.963 249.487 557.963 217.413C557.963 185.339 563.647 156.107 575.015 129.717C586.383 103.327 601.811 80.388 621.299 60.9C641.193 41.412 664.335 26.39 690.725 15.834C717.115 5.278 745.332 0 775.376 0C805.826 0 834.043 5.278 860.027 15.834C886.417 26.39 909.559 41.412 929.453 60.9C949.347 80.388 964.775 103.327 975.737 129.717C987.105 156.107 992.789 185.339 992.789 217.413C992.789 249.487 987.105 278.922 975.737 305.718C964.775 332.108 949.347 355.047 929.453 374.535C909.559 393.617 886.417 408.436 860.027 418.992C834.043 429.548 805.826 434.826 775.376 434.826ZM775.985 364.791C801.563 364.791 824.299 358.701 844.193 346.521C864.493 333.935 880.327 316.68 891.695 294.756C903.469 272.832 909.356 247.051 909.356 217.413C909.356 187.775 903.469 161.994 891.695 140.07C880.327 118.146 864.493 101.094 844.193 88.914C824.299 76.328 801.563 70.035 775.985 70.035C749.595 70.035 726.25 76.328 705.95 88.914C686.056 101.094 670.425 118.146 659.057 140.07C647.689 161.994 642.005 187.775 642.005 217.413C642.005 246.645 647.689 272.426 659.057 294.756C670.425 317.086 686.056 334.341 705.95 346.521C726.25 358.701 749.595 364.791 775.985 364.791ZM1021.85 4.263H1367.76V73.08H1236.22V430.563H1154V73.08H1021.85V4.263ZM1396.53 217.413C1396.53 185.339 1402.01 156.107 1412.97 129.717C1423.93 102.921 1439.16 79.982 1458.65 60.9C1478.13 41.412 1500.87 26.39 1526.85 15.834C1553.24 5.278 1581.66 0 1612.11 0C1655.96 0 1694.73 10.556 1728.43 31.668C1762.54 52.374 1788.11 82.215 1805.17 121.191L1736.35 141.288C1727.42 124.236 1716.25 110.432 1702.85 99.876C1689.86 89.32 1675.65 81.606 1660.22 76.734C1644.8 71.862 1629.17 69.426 1613.33 69.426C1587.35 69.426 1564.21 75.719 1543.91 88.305C1523.61 100.485 1507.77 117.74 1496.4 140.07C1485.44 162.4 1479.96 188.181 1479.96 217.413C1479.96 246.645 1485.44 272.426 1496.4 294.756C1507.77 316.68 1523.61 333.935 1543.91 346.521C1564.21 359.107 1587.35 365.4 1613.33 365.4C1629.57 365.4 1645.61 362.964 1661.44 358.092C1677.68 352.814 1692.7 344.085 1706.51 331.905C1720.31 319.725 1732.09 303.485 1741.83 283.185L1809.43 302.064C1791.97 346.318 1765.99 379.61 1731.48 401.94C1696.97 423.864 1657.18 434.826 1612.11 434.826C1581.66 434.826 1553.24 429.548 1526.85 418.992C1500.87 408.436 1478.13 393.414 1458.65 373.926C1439.16 354.438 1423.93 331.499 1412.97 305.109C1402.01 278.313 1396.53 249.081 1396.53 217.413Z" fill="#2151DF" transform="translate(275,0)"/>
  <path d="M96.84 39.06H81.36C81 22.26 70.26 13.86 49.14 13.86C40.5 13.86 33.54 15.84 28.26 19.8C22.98 23.64 20.34 28.74 20.34 35.1C20.34 39.9 21.9 43.74 25.02 46.62C28.26 49.38 33.78 51.78 41.58 53.82L72.18 61.74C91.62 66.9 101.34 77.7 101.34 94.14C101.34 106.02 96.6 115.68 87.12 123.12C78.72 129.6 66.66 132.84 50.94 132.84C31.02 132.84 16.56 126.84 7.56004 114.84C2.76004 108.36 0.240039 99.66 0 88.74H15.48V89.1C15.48 98.46 18.66 105.72 25.02 110.88C31.5 115.92 40.5 118.44 52.02 118.44C62.58 118.44 70.44 116.7 75.6 113.22C81.72 109.02 84.78 103.14 84.78 95.58C84.78 85.98 76.92 79.2 61.2 75.24L29.16 66.96C12.36 62.64 3.96004 52.74 3.96004 37.26C3.96004 25.02 8.58004 15.54 17.82 8.82C25.86 2.94 36.48 0 49.68 0C68.4 0 81.78 5.46 89.82 16.38C94.5 22.74 96.84 29.64 96.84 37.08C96.84 37.44 96.84 38.1 96.84 39.06ZM279.229 0C299.149 0 314.869 6.9 326.389 20.7C336.349 32.7 341.329 47.94 341.329 66.42C341.329 87.66 334.909 104.46 322.069 116.82C310.789 127.5 296.509 132.84 279.229 132.84C259.189 132.84 243.409 125.94 231.889 112.14C221.929 100.14 216.949 84.9 216.949 66.42C216.949 45.18 223.429 28.38 236.389 16.02C247.549 5.34 261.829 0 279.229 0ZM279.049 14.58C264.409 14.58 252.829 19.92 244.309 30.6C236.989 39.96 233.329 51.9 233.329 66.42C233.329 83.1 238.069 96.24 247.549 105.84C255.829 114.12 266.329 118.26 279.049 118.26C293.809 118.26 305.449 112.92 313.969 102.24C321.289 92.88 324.949 80.94 324.949 66.42C324.949 49.74 320.209 36.6 310.729 27C302.449 18.72 291.889 14.58 279.049 14.58ZM479.15 1.98V116.28H542.69V130.86H462.77V1.98H479.15ZM745.172 1.98H761.552V90.36C761.552 104.28 756.452 115.08 746.252 122.76C737.492 129.48 726.032 132.84 711.872 132.84C695.552 132.84 682.952 128.58 674.072 120.06C666.392 112.5 662.552 102.6 662.552 90.36V1.98H678.932V90.36C678.932 99.24 681.812 106.14 687.572 111.06C693.332 115.86 701.432 118.26 711.872 118.26C722.912 118.26 731.432 115.5 737.432 109.98C742.592 105.06 745.172 98.52 745.172 90.36V1.98ZM938.669 16.56V130.86H922.289V16.56H879.809V1.98H980.789V16.56H938.669ZM1119.14 1.98V130.86H1102.4V1.98H1119.14ZM1303.72 0C1323.64 0 1339.36 6.9 1350.88 20.7C1360.84 32.7 1365.82 47.94 1365.82 66.42C1365.82 87.66 1359.4 104.46 1346.56 116.82C1335.28 127.5 1321 132.84 1303.72 132.84C1283.68 132.84 1267.9 125.94 1256.38 112.14C1246.42 100.14 1241.44 84.9 1241.44 66.42C1241.44 45.18 1247.92 28.38 1260.88 16.02C1272.04 5.34 1286.32 0 1303.72 0ZM1303.54 14.58C1288.9 14.58 1277.32 19.92 1268.8 30.6C1261.48 39.96 1257.82 51.9 1257.82 66.42C1257.82 83.1 1262.56 96.24 1272.04 105.84C1280.32 114.12 1290.82 118.26 1303.54 118.26C1318.3 118.26 1329.94 112.92 1338.46 102.24C1345.78 92.88 1349.44 80.94 1349.44 66.42C1349.44 49.74 1344.7 36.6 1335.22 27C1326.94 18.72 1316.38 14.58 1303.54 14.58ZM1587.16 1.98V130.86H1568.8L1502.02 26.28V130.86H1486.54V1.98H1504.36L1571.68 107.28V1.98H1587.16ZM1806.76 39.06H1791.28C1790.92 22.26 1780.18 13.86 1759.06 13.86C1750.42 13.86 1743.46 15.84 1738.18 19.8C1732.9 23.64 1730.26 28.74 1730.26 35.1C1730.26 39.9 1731.82 43.74 1734.94 46.62C1738.18 49.38 1743.7 51.78 1751.5 53.82L1782.1 61.74C1801.54 66.9 1811.26 77.7 1811.26 94.14C1811.26 106.02 1806.52 115.68 1797.04 123.12C1788.64 129.6 1776.58 132.84 1760.86 132.84C1740.94 132.84 1726.48 126.84 1717.48 114.84C1712.68 108.36 1710.16 99.66 1709.92 88.74H1725.4V89.1C1725.4 98.46 1728.58 105.72 1734.94 110.88C1741.42 115.92 1750.42 118.44 1761.94 118.44C1772.5 118.44 1780.36 116.7 1785.52 113.22C1791.64 109.02 1794.7 103.14 1794.7 95.58C1794.7 85.98 1786.84 79.2 1771.12 75.24L1739.08 66.96C1722.28 62.64 1713.88 52.74 1713.88 37.26C1713.88 25.02 1718.5 15.54 1727.74 8.82C1735.78 2.94 1746.4 0 1759.6 0C1778.32 0 1791.7 5.46 1799.74 16.38C1804.42 22.74 1806.76 29.64 1806.76 37.08C1806.76 37.44 1806.76 38.1 1806.76 39.06Z" fill="#000000" transform="translate(275,509)"/>
</svg>
